<svg class="main-svg" xmlns="http://www.w3.org/2000/svg" xmlns:xlink="http://www.w3.org/1999/xlink" width="700" height="500" viewBox="0 0 700 500"><rect x="0" y="0" width="700" height="500" style="fill: rgb(20, 33, 61); fill-opacity: 1;"/><defs id="defs-1bf3fb"><g class="clips"><clipPath id="clip1bf3fbxyplot" class="plotclip"><rect width="496" height="320"/></clipPath><clipPath class="axesclip" id="clip1bf3fbx"><rect x="80" y="0" width="496" height="500"/></clipPath><clipPath class="axesclip" id="clip1bf3fby"><rect x="0" y="100" width="700" height="320"/></clipPath><clipPath class="axesclip" id="clip1bf3fbxy"><rect x="80" y="100" width="496" height="320"/></clipPath></g><g class="gradients"/></defs><g class="bglayer"/><g class="layer-below"><g class="imagelayer"/><g class="shapelayer"/></g><g class="cartesianlayer"><g class="subplot xy"><g class="layer-subplot"><g class="shapelayer"/><g class="imagelayer"/></g><g class="gridlayer"><g class="x"><path class="xgrid crisp" transform="translate(108.55,0)" d="M0,100v320" style="stroke: rgb(54, 108, 112); stroke-opacity: 1; stroke-width: 1px;"/><path class="xgrid crisp" transform="translate(181.7,0)" d="M0,100v320" style="stroke: rgb(54, 108, 112); stroke-opacity: 1; stroke-width: 1px;"/><path class="xgrid crisp" transform="translate(254.85,0)" d="M0,100v320" style="stroke: rgb(54, 108, 112); stroke-opacity: 1; stroke-width: 1px;"/><path class="xgrid crisp" transform="translate(328,0)" d="M0,100v320" style="stroke: rgb(54, 108, 112); stroke-opacity: 1; stroke-width: 1px;"/><path class="xgrid crisp" transform="translate(401.15,0)" d="M0,100v320" style="stroke: rgb(54, 108, 112); stroke-opacity: 1; stroke-width: 1px;"/><path class="xgrid crisp" transform="translate(474.3,0)" d="M0,100v320" style="stroke: rgb(54, 108, 112); stroke-opacity: 1; stroke-width: 1px;"/><path class="xgrid crisp" transform="translate(547.45,0)" d="M0,100v320" style="stroke: rgb(54, 108, 112); stroke-opacity: 1; stroke-width: 1px;"/></g><g class="y"><path class="ygrid crisp" transform="translate(0,344.15)" d="M80,0h496" style="stroke: rgb(54, 108, 112); stroke-opacity: 1; stroke-width: 1px;"/><path class="ygrid crisp" transform="translate(0,274.03)" d="M80,0h496" style="stroke: rgb(54, 108, 112); stroke-opacity: 1; stroke-width: 1px;"/><path class="ygrid crisp" transform="translate(0,203.9)" d="M80,0h496" style="stroke: rgb(54, 108, 112); stroke-opacity: 1; stroke-width: 1px;"/><path class="ygrid crisp" transform="translate(0,133.77)" d="M80,0h496" style="stroke: rgb(54, 108, 112); stroke-opacity: 1; stroke-width: 1px;"/></g></g><g class="zerolinelayer"><path class="yzl zl crisp" transform="translate(0,414.28)" d="M80,0h496" style="stroke: rgb(54, 108, 112); stroke-opacity: 1; stroke-width: 1px;"/></g><path class="xlines-below"/><path class="ylines-below"/><g class="overlines-below"/><g class="xaxislayer-below"/><g class="yaxislayer-below"/><g class="overaxes-below"/><g class="plot" transform="translate(80, 100)" clip-path="url(#clip1bf3fbxyplot)"><g class="scatterlayer mlayer"><g class="trace scatter trace70b4ca20-bc20-4116-befa-e49a8ff55ecd" style="stroke-miterlimit: 2; opacity: 1;"><g class="fills"/><g class="errorbars"/><g class="lines"><path class="js-line" d="M28.55,300.25L101.7,61.82L174.85,19.75L248,174.03L321.15,75.85L394.3,244.15L467.45,272.2" style="vector-effect: non-scaling-stroke; fill: none; stroke: rgb(255, 255, 255); stroke-opacity: 1; stroke-width: 2px; opacity: 1;"/></g><g class="points"><path class="point" transform="translate(28.55,300.25)" d="M3,0A3,3 0 1,1 0,-3A3,3 0 0,1 3,0Z" style="opacity: 1; stroke-width: 0px; fill: rgb(255, 255, 255); fill-opacity: 1;"/><path class="point" transform="translate(101.7,61.82)" d="M3,0A3,3 0 1,1 0,-3A3,3 0 0,1 3,0Z" style="opacity: 1; stroke-width: 0px; fill: rgb(255, 255, 255); fill-opacity: 1;"/><path class="point" transform="translate(174.85,19.75)" d="M3,0A3,3 0 1,1 0,-3A3,3 0 0,1 3,0Z" style="opacity: 1; stroke-width: 0px; fill: rgb(255, 255, 255); fill-opacity: 1;"/><path class="point" transform="translate(248,174.03)" d="M3,0A3,3 0 1,1 0,-3A3,3 0 0,1 3,0Z" style="opacity: 1; stroke-width: 0px; fill: rgb(255, 255, 255); fill-opacity: 1;"/><path class="point" transform="translate(321.15,75.85)" d="M3,0A3,3 0 1,1 0,-3A3,3 0 0,1 3,0Z" style="opacity: 1; stroke-width: 0px; fill: rgb(255, 255, 255); fill-opacity: 1;"/><path class="point" transform="translate(394.3,244.15)" d="M3,0A3,3 0 1,1 0,-3A3,3 0 0,1 3,0Z" style="opacity: 1; stroke-width: 0px; fill: rgb(255, 255, 255); fill-opacity: 1;"/><path class="point" transform="translate(467.45,272.2)" d="M3,0A3,3 0 1,1 0,-3A3,3 0 0,1 3,0Z" style="opacity: 1; stroke-width: 0px; fill: rgb(255, 255, 255); fill-opacity: 1;"/></g><g class="text"/></g></g></g><g class="overplot"/><path class="xlines-above crisp" d="M0,0" style="fill: none;"/><path class="ylines-above crisp" d="M0,0" style="fill: none;"/><g class="overlines-above"/><g class="xaxislayer-above"><g class="xtick"><text text-anchor="start" x="0" y="439" transform="translate(108.55,0) rotate(30,0,430)" style="font-family: 'Open Sans', verdana, arial, sans-serif; font-size: 18px; fill: rgb(158, 191, 195); fill-opacity: 1; white-space: pre;">Sunday</text></g><g class="xtick"><text text-anchor="start" x="0" y="439" transform="translate(181.7,0) rotate(30,0,430)" style="font-family: 'Open Sans', verdana, arial, sans-serif; font-size: 18px; fill: rgb(158, 191, 195); fill-opacity: 1; white-space: pre;">Monday</text></g><g class="xtick"><text text-anchor="start" x="0" y="439" transform="translate(254.85,0) rotate(30,0,430)" style="font-family: 'Open Sans', verdana, arial, sans-serif; font-size: 18px; fill: rgb(158, 191, 195); fill-opacity: 1; white-space: pre;">Tuesday</text></g><g class="xtick"><text text-anchor="start" x="0" y="439" transform="translate(328,0) rotate(30,0,430)" style="font-family: 'Open Sans', verdana, arial, sans-serif; font-size: 18px; fill: rgb(158, 191, 195); fill-opacity: 1; white-space: pre;">Wednesday</text></g><g class="xtick"><text text-anchor="start" x="0" y="439" transform="translate(401.15,0) rotate(30,0,430)" style="font-family: 'Open Sans', verdana, arial, sans-serif; font-size: 18px; fill: rgb(158, 191, 195); fill-opacity: 1; white-space: pre;">Thursday</text></g><g class="xtick"><text text-anchor="start" x="0" y="439" transform="translate(474.3,0) rotate(30,0,430)" style="font-family: 'Open Sans', verdana, arial, sans-serif; font-size: 18px; fill: rgb(158, 191, 195); fill-opacity: 1; white-space: pre;">Friday</text></g><g class="xtick"><text text-anchor="start" x="0" y="439" transform="translate(547.45,0) rotate(30,0,430)" style="font-family: 'Open Sans', verdana, arial, sans-serif; font-size: 18px; fill: rgb(158, 191, 195); fill-opacity: 1; white-space: pre;">Saturday</text></g></g><g class="yaxislayer-above"><g class="ytick"><text text-anchor="end" x="79" y="6.3" transform="translate(0,414.28)" style="font-family: 'Open Sans', verdana, arial, sans-serif; font-size: 18px; fill: rgb(158, 191, 195); fill-opacity: 1; white-space: pre;">0</text></g><g class="ytick"><text text-anchor="end" x="79" y="6.3" transform="translate(0,344.15)" style="font-family: 'Open Sans', verdana, arial, sans-serif; font-size: 18px; fill: rgb(158, 191, 195); fill-opacity: 1; white-space: pre;">5</text></g><g class="ytick"><text text-anchor="end" x="79" y="6.3" transform="translate(0,274.03)" style="font-family: 'Open Sans', verdana, arial, sans-serif; font-size: 18px; fill: rgb(158, 191, 195); fill-opacity: 1; white-space: pre;">10</text></g><g class="ytick"><text text-anchor="end" x="79" y="6.3" transform="translate(0,203.9)" style="font-family: 'Open Sans', verdana, arial, sans-serif; font-size: 18px; fill: rgb(158, 191, 195); fill-opacity: 1; white-space: pre;">15</text></g><g class="ytick"><text text-anchor="end" x="79" y="6.3" transform="translate(0,133.77)" style="font-family: 'Open Sans', verdana, arial, sans-serif; font-size: 18px; fill: rgb(158, 191, 195); fill-opacity: 1; white-space: pre;">20</text></g></g><g class="overaxes-above"/></g></g><g class="polarlayer"/><g class="ternarylayer"/><g class="geolayer"/><g class="pielayer"/><g class="glimages"/><defs id="topdefs-1bf3fb"><g class="clips"/><clipPath id="legend1bf3fb"><rect width="102" height="34" x="0" y="0"/></clipPath></defs><g class="layer-above"><g class="imagelayer"/><g class="shapelayer"/></g><g class="infolayer"><g class="legend" pointer-events="all" transform="translate(585.9200000000001, 100)"><rect class="bg" shape-rendering="crispEdges" style="stroke: rgb(68, 68, 68); stroke-opacity: 1; fill: rgb(20, 33, 61); fill-opacity: 1; stroke-width: 0px;" width="102" height="34" x="0" y="0"/><g class="scrollbox" transform="translate(0, 0)" clip-path="url(#legend1bf3fb)"><g class="groups"><g class="traces" transform="translate(0, 16.9)" style="opacity: 1;"><text class="legendtext user-select-none" text-anchor="start" x="40" y="6.24" style="font-family: 'Open Sans', verdana, arial, sans-serif; font-size: 16px; fill: rgb(31, 228, 148); fill-opacity: 1; white-space: pre;">trace 0</text><rect class="legendtoggle" pointer-events="all" x="0" y="-11.9" width="142" height="23.8" style="cursor: pointer; fill: rgb(0, 0, 0); fill-opacity: 0;"/><g class="layers" style="opacity: 1;"><g class="legendfill"/><g class="legendlines"><path class="js-line" d="M5,0h30" style="fill: none; stroke: rgb(255, 255, 255); stroke-opacity: 1; stroke-width: 2px;"/></g><g class="legendsymbols"><g class="legendpoints"><path class="scatterpts" transform="translate(20,0)" d="M3,0A3,3 0 1,1 0,-3A3,3 0 0,1 3,0Z" style="opacity: 1; stroke-width: 0px; fill: rgb(255, 255, 255); fill-opacity: 1;"/></g></g></g></g></g></g><rect class="scrollbar" rx="20" ry="3" width="0" height="0" style="fill: rgb(128, 139, 164); fill-opacity: 1;" x="0" y="0"/></g><g class="g-gtitle"><text class="gtitle" x="350" y="50" text-anchor="middle" dy="0em" style="font-family: 'Open Sans', verdana, arial, sans-serif; font-size: 24px; fill: rgb(31, 228, 148); opacity: 1; font-weight: normal; white-space: pre;"><tspan style="font-weight:bold">Weekdays Commits in March</tspan></text></g><g class="g-xtitle" transform="translate(0,12)"><text class="xtitle" x="328" y="484" text-anchor="middle" style="font-family: 'Open Sans', verdana, arial, sans-serif; font-size: 18px; fill: rgb(31, 228, 148); opacity: 1; font-weight: normal; white-space: pre;">Weekdays</text></g><g class="g-ytitle"><text class="ytitle" transform="rotate(-90,34,260)" x="34" y="260" text-anchor="middle" style="font-family: 'Open Sans', verdana, arial, sans-serif; font-size: 18px; fill: rgb(31, 228, 148); opacity: 1; font-weight: normal; white-space: pre;">Commits</text></g></g></svg>